<svg width="14" height="16" viewBox="0 0 14 16" fill="none" xmlns="http://www.w3.org/2000/svg">
<path d="M11.0002 2L9.00016 0L7.00016 2L5.00016 0L3.00016 2L0.333496 0V15.3333C0.333496 15.702 0.632163 16 1.00016 16H13.0002C13.3682 16 13.6668 15.702 13.6668 15.3333V0L11.0002 2ZM7.3675 12.2187V13.2867H6.65416V12.24C5.80683 12.2227 5.0635 12.0733 4.42483 11.792V10.4173C5.02483 10.714 5.97683 10.974 6.65416 11.016V9.40133C5.4615 8.93867 4.41483 8.49 4.41483 7.20333C4.41483 6.03467 5.48683 5.48533 6.65416 5.37V4.57267H7.3675V5.34867C8.16216 5.38333 8.8815 5.54333 9.5235 5.828L9.03416 7.04667C8.49283 6.82467 7.93683 6.68933 7.3675 6.64067V8.17733C8.63283 8.664 9.6435 9.10733 9.6435 10.2867C9.6435 11.53 8.61083 12.1047 7.3675 12.2187Z" fill="white"/>
</svg>
