<svg width="42" height="43" viewBox="0 0 42 43" fill="none" xmlns="http://www.w3.org/2000/svg">
<path d="M30.9926 0H11.0074C4.9282 0 0 4.87343 0 10.8851V32.1149C0 38.1266 4.9282 43 11.0074 43H30.9926C37.0718 43 42 38.1266 42 32.1149V10.8851C42 4.87343 37.0718 0 30.9926 0Z" fill="#DDDCDC"/>
<path d="M21.2493 5.72046C21.5132 5.94202 21.8091 6.13656 22.0363 6.39055C24.2393 8.86401 26.4353 11.3437 28.6243 13.8295C29.0365 14.2965 29.0865 14.7505 28.7805 15.1697C28.5533 15.4784 28.2301 15.5842 27.8561 15.5834C26.6929 15.5834 25.5298 15.5834 24.3666 15.5834H23.9911V15.9609C23.9911 20.0268 23.9911 24.0939 23.9911 28.1623C23.9911 29.0416 23.6382 29.389 22.742 29.389H19.1938C18.3858 29.389 18.0088 29.0184 18.0088 28.224C18.0088 24.1469 18.0088 20.0697 18.0088 15.9926V15.5827H17.6653C16.4709 15.5827 15.2764 15.5904 14.082 15.5827C13.3232 15.5757 12.8462 14.935 13.0945 14.2703C13.157 14.1187 13.2461 13.9791 13.3576 13.858C15.6246 11.2888 17.8953 8.72351 20.1697 6.16204C20.3258 5.98448 20.5561 5.86868 20.7521 5.72432L21.2493 5.72046Z" fill="#F3F3F3"/>
<path d="M6.04004 27.4304H10.0215V33.3176H31.9544V27.4389H35.9451C35.9498 27.5408 35.9592 27.6396 35.9592 27.7392C35.9592 30.1942 35.9592 32.6491 35.9592 35.104C35.9592 36.4751 35.141 37.2795 33.746 37.2795H8.25636C6.85115 37.2795 6.04082 36.4735 6.04082 35.0747C6.04082 32.6403 6.04082 30.206 6.04082 27.7716L6.04004 27.4304Z" fill="#F3F3F3"/>
</svg>
