<svg width="37" height="34" viewBox="0 0 37 34" fill="none" xmlns="http://www.w3.org/2000/svg">
<path d="M0 27.797V27.2091C0.131298 27.024 0.234599 26.8075 0.397756 26.6595C1.52924 25.6436 2.42515 24.4347 3.17046 23.116C5.39095 19.207 6.39789 14.961 6.49153 10.4779C6.5398 8.13353 6.50119 5.78619 6.50408 3.43982C6.50408 2.63549 6.93756 2.20051 7.73597 2.19953H13.0806C13.0806 1.81451 13.0757 1.48533 13.0806 1.15714C13.0912 0.482126 13.5585 -0.0077204 14.1783 0.000117146C14.7826 0.00893439 15.2354 0.489964 15.247 1.14832C15.2528 1.48729 15.247 1.82627 15.247 2.177H20.6669C20.6669 1.83998 20.6669 1.52354 20.6669 1.20808C20.6727 0.496823 21.1178 0.00109684 21.7501 0.000117146C22.3825 -0.000862547 22.8285 0.495843 22.8343 1.2071C22.8343 1.53138 22.8343 1.85566 22.8343 2.16916H28.3266C28.3266 1.80961 28.3218 1.48337 28.3266 1.15028C28.3363 0.492902 28.7881 0.00893439 29.3934 0.000117146C29.9987 -0.0087001 30.4814 0.481148 30.4921 1.15518C30.4978 1.49317 30.4921 1.83117 30.4921 2.19953H35.6532C36.6022 2.19953 36.9961 2.59141 36.9961 3.54857V31.6325C36.9961 32.6122 36.61 33.004 35.6378 33.004H7.86244C7.7659 33.004 7.66935 33.004 7.57281 33.004C7.29262 32.9978 7.02553 32.8825 6.82691 32.6818C6.6283 32.4812 6.51339 32.2107 6.50601 31.9264C6.49926 31.7804 6.50601 31.6325 6.50601 31.4865V28.6033H6.08219C4.52882 28.6033 2.97545 28.5817 1.42207 28.613C0.756895 28.6268 0.279974 28.4161 0 27.797ZM34.8268 11.0246H8.66374C8.40791 16.6343 6.97425 21.8306 3.57305 26.4058H27.7831C29.0767 26.4058 29.0893 26.4146 29.907 25.3791C33.2261 21.2046 34.5314 16.315 34.8268 11.0246ZM30.4959 4.41168C30.4959 4.7722 30.4959 5.09746 30.4959 5.42762C30.4872 6.1134 30.0354 6.60325 29.4166 6.60325C28.7977 6.60325 28.3382 6.11341 28.3295 5.43546C28.3295 5.09844 28.3295 4.76143 28.3295 4.43323H22.8362C22.8362 4.7918 22.841 5.11902 22.8362 5.45113C22.8256 6.1232 22.3535 6.61403 21.7347 6.60325C21.1158 6.59247 20.6804 6.10753 20.6727 5.45015C20.6727 5.11118 20.6727 4.77319 20.6727 4.42833H15.248C15.248 4.76829 15.248 5.08375 15.248 5.40019C15.2422 6.10949 14.7923 6.60521 14.1599 6.60325C13.5276 6.60129 13.0864 6.10361 13.0815 5.39039C13.0815 5.06709 13.0815 4.74281 13.0815 4.42343H8.69464V8.77915H34.8027V4.41168H30.4959ZM34.8162 21.3408C34.7197 21.5426 34.6646 21.6572 34.6115 21.7728C33.536 24.1133 32.2192 26.2873 30.382 28.1046C30.2176 28.2729 30.0206 28.4049 29.8034 28.492C29.5862 28.5792 29.3536 28.6198 29.1202 28.6111C22.4491 28.5993 15.778 28.5967 9.10688 28.6033H8.68885V30.7831H34.8162V21.3408Z" fill="white"/>
</svg>
