<svg width="82" height="116" viewBox="0 0 82 116" fill="none" xmlns="http://www.w3.org/2000/svg">
<path d="M15.6581 75.527C15.6581 66.0543 15.6581 56.5829 15.6581 47.1102C16.4777 44.7954 17.3125 44.2084 19.7878 44.2084C22.4602 44.2084 25.1325 44.2015 27.8063 44.2167C28.1493 44.218 28.338 44.1092 28.5019 43.8116C29.451 42.0948 30.4359 40.3986 31.3754 38.6763C31.8024 37.8951 32.414 37.5465 33.2956 37.5492C38.4434 37.5603 43.5897 37.5616 48.7374 37.5479C49.6411 37.5451 50.2637 37.8992 50.6935 38.7011C51.604 40.4014 52.5614 42.0755 53.4747 43.773C53.6579 44.1133 53.8686 44.2194 54.2475 44.2167C57.0851 44.2001 59.9228 44.1974 62.7604 44.2112C64.8997 44.2222 66.3337 45.6248 66.335 47.7247C66.3433 56.8006 66.3447 65.8765 66.324 74.9524C66.3226 75.4801 66.1987 76.0492 65.9741 76.5246C65.3171 77.9121 64.1269 78.4535 62.6309 78.4494C58.7546 78.4411 54.877 78.4467 51.0007 78.4467C40.5082 78.4467 30.0158 78.4535 19.5234 78.4315C18.8649 78.4301 18.1665 78.3116 17.5604 78.0664C16.4529 77.6199 15.9281 76.6472 15.6581 75.527ZM41.0096 46.9696C34.1318 46.9462 28.5336 52.5361 28.5102 59.4488C28.4868 66.3312 34.0836 71.9515 40.9752 71.9652C47.8283 71.979 53.4705 66.3436 53.4871 59.4709C53.5036 52.5857 47.922 46.993 41.0096 46.9696Z" fill="#DAD7D7"/>
<path d="M41.0193 53.2278C44.492 53.2416 47.2649 56.0428 47.2415 59.5122C47.2181 62.9486 44.4108 65.7305 40.978 65.7194C37.5246 65.707 34.7366 62.8852 34.7558 59.4213C34.7765 55.9767 37.5715 53.2141 41.0193 53.2278Z" fill="#F3F3F3"/>
</svg>
