<svg width="14" height="16" viewBox="0 0 14 16" fill="none" xmlns="http://www.w3.org/2000/svg">
<path d="M11.8068 1.39504C11.3439 1.74216 10.6963 1.69614 10.2872 1.28705L10.0002 1C9.44788 0.447715 8.55245 0.447715 8.00016 1C7.44788 1.55228 6.55245 1.55228 6.00016 1C5.44788 0.447715 4.55245 0.447716 4.00016 1L3.71311 1.28705C3.30402 1.69614 2.65638 1.74216 2.19355 1.39504C1.42717 0.820254 0.333496 1.36709 0.333496 2.32507V15.3333C0.333496 15.702 0.632163 16 1.00016 16H13.0002C13.3682 16 13.6668 15.702 13.6668 15.3333V2.32507C13.6668 1.36709 12.5732 0.820253 11.8068 1.39504ZM7.87144 12.1439C7.58897 12.2034 7.3675 12.4396 7.3675 12.7282V12.93C7.3675 13.127 7.20781 13.2867 7.01083 13.2867C6.81385 13.2867 6.65416 13.127 6.65416 12.93V12.758C6.65416 12.4702 6.4236 12.2377 6.13699 12.2119C5.65124 12.1681 5.20352 12.0761 4.79397 11.9359C4.56608 11.8579 4.42483 11.6365 4.42483 11.3957C4.42483 10.9451 4.90648 10.6361 5.33859 10.7636C5.47213 10.803 5.60809 10.8392 5.7434 10.8711C6.23041 10.9861 6.65416 10.5931 6.65416 10.0927V10.0336C6.65416 9.65246 6.41778 9.31543 6.06784 9.16449C5.13839 8.76361 4.41483 8.27313 4.41483 7.20333C4.41483 6.16144 5.26688 5.6118 6.2789 5.42309C6.49036 5.38366 6.65416 5.20608 6.65416 4.99098V4.92933C6.65416 4.73235 6.81385 4.57267 7.01083 4.57267C7.20781 4.57267 7.3675 4.73235 7.3675 4.92933V4.96913C7.3675 5.18136 7.53485 5.35463 7.74609 5.37522C8.15984 5.41554 8.55176 5.49199 8.92154 5.60446C9.26453 5.70879 9.41766 6.09159 9.28408 6.42427C9.14635 6.76727 8.75629 6.92809 8.40042 6.82822C8.35004 6.81408 8.29954 6.80066 8.24892 6.78796C7.78214 6.67086 7.3675 7.05403 7.3675 7.53528V7.58306C7.3675 7.94109 7.58958 8.25865 7.91975 8.39713C8.91456 8.81438 9.6435 9.2851 9.6435 10.2867C9.6435 11.3572 8.8779 11.932 7.87144 12.1439Z" fill="white"/>
</svg>
