<svg width="14" height="16" viewBox="0 0 14 16" fill="none" xmlns="http://www.w3.org/2000/svg">
<path d="M13.0002 0H1.00016C0.632163 0 0.333496 0.298 0.333496 0.666667V16L3.00016 14L5.00016 16L7.00016 14L9.00016 16L11.0002 14L13.6668 16V0.666667C13.6668 0.298 13.3682 0 13.0002 0ZM7.66683 10.6667H3.00016V9.33333H7.66683V10.6667ZM7.66683 8H3.00016V6.66667H7.66683V8ZM7.66683 5.33333H3.00016V4H7.66683V5.33333ZM11.0002 10.6667H9.00016V9.33333H11.0002V10.6667ZM11.0002 8H9.00016V6.66667H11.0002V8ZM11.0002 5.33333H9.00016V4H11.0002V5.33333Z" fill="white"/>
</svg>
