<svg width="45" height="50" viewBox="0 0 45 50" fill="none" xmlns="http://www.w3.org/2000/svg">
<path d="M17.4034 49.118C17.237 49.0719 17.0718 49.0219 16.9054 48.9809C15.7478 48.6962 14.7218 48.0249 13.9967 47.0779C9.72925 41.7196 5.45795 36.3604 1.18282 31.0004C-1.3098 27.862 0.337868 23.3883 4.24771 22.6938C4.88782 22.5797 5.55227 22.6284 6.20647 22.6207C7.07959 22.6105 7.95399 22.6207 8.87704 22.6207V21.9966C8.87704 16.4179 8.87704 10.84 8.87704 5.26298C8.87704 2.527 10.645 0.468931 13.3284 0.0409141C13.5656 0.00902395 13.8048 -0.00425824 14.0441 0.00118832C16.7257 0.00118832 19.4083 0.00118832 22.0916 0.00118832C25.0195 0.00118832 27.242 2.20663 27.2715 5.14379C27.2868 6.77385 27.2715 8.4039 27.2715 10.0339V10.5952C27.868 10.5055 28.4237 10.4056 28.987 10.3389C32.7141 9.90292 36.463 10.9511 39.425 13.2572C42.3869 15.5634 44.3244 18.9426 44.8194 22.666C45.3144 26.3893 44.3272 30.1582 42.0709 33.1594C39.8145 36.1607 36.4699 38.1537 32.7585 38.7085C31.6063 38.8828 30.4042 38.8149 29.2264 38.7969C28.8961 38.7969 28.7053 38.8546 28.5082 39.1045C26.6237 41.4829 24.6931 43.8268 22.8521 46.2372C21.769 47.6546 20.563 48.8002 18.7348 49.1129L17.4034 49.118ZM26.5532 38.3023L25.9439 38.087C19.558 35.8546 15.5343 29.4087 16.4791 22.7091C17.2178 17.4755 20.0804 13.7387 24.8518 11.4718C25.1578 11.3257 25.2602 11.1681 25.2576 10.831C25.241 8.97672 25.2576 7.12369 25.2487 5.26938C25.241 3.34715 23.9403 2.03747 22.0327 2.02978C19.398 2.01953 16.7633 2.01312 14.1286 2.04132C13.6353 2.04352 13.1479 2.14825 12.6973 2.34887C11.4337 2.93964 10.9254 4.0148 10.9267 5.37959C10.9344 11.3248 10.9344 17.2701 10.9267 23.2153C10.9267 24.3392 10.622 24.648 9.51843 24.648C8.09737 24.648 6.67631 24.648 5.25525 24.648C3.93149 24.648 2.9329 25.2016 2.36064 26.3985C1.78837 27.5954 1.98297 28.7193 2.80872 29.7535C7.06337 35.0845 11.3155 40.4171 15.565 45.7515C16.9732 47.5123 19.174 47.5136 20.6002 45.7592C21.2544 44.9545 21.8957 44.1382 22.5435 43.3244L26.5532 38.3023ZM18.3879 24.5596C18.4058 31.3361 23.907 36.8516 30.6346 36.8375C33.8878 36.8312 37.0052 35.5316 39.301 33.2246C41.5969 30.9176 42.8832 27.7922 42.8769 24.5359C42.8706 21.2796 41.5723 18.1591 39.2675 15.861C36.9628 13.5629 33.8404 12.2754 30.5873 12.2817C23.8814 12.2983 18.37 17.8446 18.3879 24.5596Z" fill="white"/>
<path d="M25.1798 28.9166C25.3219 28.6603 25.4154 28.3617 25.6125 28.1618C28.482 25.2691 31.3599 22.3853 34.2464 19.5105C34.7304 19.0274 35.3538 19.021 35.7827 19.4541C36.2116 19.8873 36.1975 20.4857 35.7021 20.9829C32.8267 23.8688 29.9478 26.7518 27.0656 29.6317C26.7263 29.9713 26.3243 30.0789 25.8852 29.897C25.4807 29.7304 25.2515 29.4138 25.1798 28.9166Z" fill="white"/>
<path d="M27.4278 18.4225C28.203 18.4181 28.9481 18.7221 29.4994 19.2677C30.0506 19.8132 30.3628 20.5556 30.3672 21.3315C30.3716 22.1074 30.0679 22.8533 29.5229 23.4051C28.9779 23.9569 28.2362 24.2694 27.4611 24.2738C26.6859 24.2782 25.9407 23.9742 25.3895 23.4287C24.8382 22.8831 24.5261 22.1408 24.5217 21.3648C24.5172 20.5889 24.8209 19.843 25.3659 19.2912C25.911 18.7394 26.6526 18.427 27.4278 18.4225ZM27.4457 22.1837C27.5583 22.1894 27.6708 22.1724 27.7766 22.1336C27.8824 22.0948 27.9793 22.0351 28.0616 21.958C28.1438 21.8809 28.2097 21.788 28.2552 21.6848C28.3008 21.5817 28.3251 21.4704 28.3268 21.3576C28.3284 21.2448 28.3073 21.1329 28.2647 21.0284C28.2222 20.924 28.159 20.8292 28.0791 20.7497C27.9991 20.6703 27.904 20.6077 27.7993 20.5659C27.6947 20.5241 27.5827 20.5038 27.47 20.5062C27.3575 20.5005 27.245 20.5175 27.1392 20.5563C27.0333 20.5951 26.9364 20.6548 26.8542 20.7319C26.772 20.809 26.7061 20.902 26.6605 21.0051C26.615 21.1083 26.5906 21.2196 26.589 21.3323C26.5874 21.4451 26.6084 21.5571 26.651 21.6615C26.6936 21.766 26.7567 21.8607 26.8367 21.9402C26.9166 22.0197 27.0118 22.0822 27.1164 22.124C27.2211 22.1659 27.3331 22.1862 27.4457 22.1837Z" fill="white"/>
<path d="M33.8803 30.7005C33.3019 30.6992 32.7368 30.5262 32.2567 30.2032C31.7765 29.8803 31.4029 29.422 31.1832 28.8864C30.9634 28.3509 30.9073 27.762 31.0221 27.1945C31.1368 26.627 31.4172 26.1063 31.8278 25.6984C32.2383 25.2905 32.7606 25.0138 33.3283 24.9031C33.8961 24.7925 34.484 24.853 35.0174 25.077C35.5508 25.301 36.0058 25.6784 36.3249 26.1614C36.6439 26.6444 36.8125 27.2112 36.8095 27.7903C36.7998 28.5628 36.4874 29.3007 35.9395 29.845C35.3917 30.3893 34.6522 30.6965 33.8803 30.7005ZM33.8598 28.6168C33.9716 28.623 34.0834 28.6067 34.1888 28.5689C34.2941 28.5312 34.3909 28.4727 34.4733 28.3969C34.5557 28.3211 34.6221 28.2296 34.6686 28.1277C34.7152 28.0258 34.7409 27.9157 34.7442 27.8037C34.7475 27.6917 34.7284 27.5802 34.688 27.4758C34.6477 27.3713 34.5868 27.276 34.509 27.1954C34.4313 27.1149 34.3382 27.0507 34.2353 27.0067C34.1323 26.9628 34.0217 26.9398 33.9098 26.9393C33.798 26.9332 33.6862 26.9495 33.5808 26.9872C33.4755 27.025 33.3788 27.0835 33.2963 27.1593C33.2139 27.2351 33.1475 27.3266 33.101 27.4284C33.0544 27.5303 33.0288 27.6405 33.0254 27.7524C33.0221 27.8644 33.0412 27.9759 33.0816 28.0804C33.122 28.1848 33.1828 28.2802 33.2606 28.3607C33.3383 28.4413 33.4314 28.5054 33.5343 28.5494C33.6373 28.5934 33.7479 28.6163 33.8598 28.6168Z" fill="white"/>
</svg>
