<svg width="22" height="18" viewBox="0 0 22 18" fill="none" xmlns="http://www.w3.org/2000/svg">
<path d="M20.1875 3.09375H16.25V1.78125C16.25 1.05703 15.6617 0.46875 14.9375 0.46875H7.0625C6.33828 0.46875 5.75 1.05703 5.75 1.78125V3.09375H1.8125C1.08828 3.09375 0.5 3.68203 0.5 4.40625V16.2188C0.5 16.943 1.08828 17.5312 1.8125 17.5312H20.1875C20.9117 17.5312 21.5 16.943 21.5 16.2188V4.40625C21.5 3.68203 20.9117 3.09375 20.1875 3.09375ZM7.0625 1.78125H14.9375V3.09375H7.0625V1.78125ZM20.1875 16.2188H1.8125V10.9688H9.03125V11.625C9.03125 12.3492 9.61953 12.9375 10.3438 12.9375H11.6562C12.3805 12.9375 12.9688 12.3492 12.9688 11.625V10.9688H20.1875V16.2188ZM10.3438 11.625V9H11.6562V11.625H10.3438ZM12.9688 9.65625V9C12.9688 8.27578 12.3805 7.6875 11.6562 7.6875H10.3438C9.61953 7.6875 9.03125 8.27578 9.03125 9V9.65625H1.8125V4.40625H20.1875V9.65625H12.9688Z" fill="#009B72"/>
</svg>
