<svg width="43" height="43" viewBox="0 0 43 43" fill="none" xmlns="http://www.w3.org/2000/svg">
<g clip-path="url(#clip0_3690_754)">
<path d="M31.6072 0H11.2257C5.02592 0 0 4.87343 0 10.8851V32.1149C0 38.1266 5.02592 43 11.2257 43H31.6072C37.8069 43 42.8329 38.1266 42.8329 32.1149V10.8851C42.8329 4.87343 37.8069 0 31.6072 0Z" fill="#DDDCDC"/>
<path d="M21.6707 5.72046C21.9398 5.94202 22.2415 6.13656 22.4732 6.39055C24.7199 8.86401 26.9595 11.3437 29.1919 13.8295C29.6123 14.2965 29.6632 14.7505 29.3511 15.1697C29.1194 15.4784 28.7898 15.5842 28.4085 15.5834C27.2222 15.5834 26.036 15.5834 24.8497 15.5834H24.4667V15.9609C24.4667 20.0268 24.4667 24.0939 24.4667 28.1623C24.4667 29.0416 24.1069 29.389 23.1929 29.389H19.5744C18.7504 29.389 18.3658 29.0184 18.3658 28.224C18.3658 24.1469 18.3658 20.0697 18.3658 15.9926V15.5827H18.0155C16.7974 15.5827 15.5793 15.5904 14.3612 15.5827C13.5874 15.5757 13.1009 14.935 13.3541 14.2703C13.4179 14.1187 13.5087 13.9791 13.6224 13.858C15.9344 11.2888 18.2501 8.72351 20.5696 6.16204C20.7288 5.98448 20.9637 5.86868 21.1635 5.72432L21.6707 5.72046Z" fill="#F3F3F3"/>
<path d="M6.15979 27.4304H10.2202V33.3176H32.588V27.4389H36.6579C36.6627 27.5408 36.6722 27.6396 36.6722 27.7392C36.6722 30.1942 36.6722 32.6491 36.6722 35.104C36.6722 36.4751 35.8379 37.2795 34.4151 37.2795H8.42006C6.98699 37.2795 6.16059 36.4735 6.16059 35.0747C6.16059 32.6403 6.16059 30.206 6.16059 27.7716L6.15979 27.4304Z" fill="#F3F3F3"/>
</g>
<defs>
<clipPath id="clip0_3690_754">
<rect width="42.8329" height="43" rx="5" fill="white"/>
</clipPath>
</defs>
</svg>
