<svg width="24" height="25" viewBox="0 0 24 25" fill="none" xmlns="http://www.w3.org/2000/svg">
<path fill-rule="evenodd" clip-rule="evenodd" d="M3 9.10329L12 2.75L21 9.10329V21.9105H13.4211V17.1737H10.5789V21.9105H3V9.10329ZM15.3158 20.0158H19.1053V10.0862L12 5.07105L4.89474 10.0862V20.0158H8.68421V15.2789H15.3158V20.0158ZM9.15789 11.0158C9.15789 9.44967 10.4339 8.17368 12 8.17368C13.5661 8.17368 14.8421 9.44671 14.8421 11.0158C14.8421 12.5819 13.5661 13.8579 12 13.8579C10.4339 13.8579 9.15789 12.5819 9.15789 11.0158ZM10.5789 11.0158C10.5789 11.8003 11.2155 12.4368 12 12.4368C12.7845 12.4368 13.4211 11.8003 13.4211 11.0158C13.4211 10.2313 12.7845 9.59474 12 9.59474C11.2155 9.59474 10.5789 10.2313 10.5789 11.0158Z" fill="currentColor"/>
</svg>
