<svg width="19" height="26" viewBox="0 0 19 26" fill="none" xmlns="http://www.w3.org/2000/svg">
<g clip-path="url(#clip0_3203_466)">
<path d="M2.27282 10.7005C2.27282 10.6052 2.27282 10.5067 2.27282 10.4081C2.27885 9.3696 2.24734 8.32972 2.29762 7.29185C2.39177 5.61963 3.10036 4.04113 4.28734 2.85948C5.47431 1.67784 7.05597 0.976343 8.7286 0.889714C10.4012 0.803086 12.0469 1.33743 13.3496 2.39013C14.6523 3.44284 15.5202 4.93968 15.7866 6.59323C15.8465 7.01519 15.8761 7.44091 15.8751 7.8671C15.8885 8.72126 15.8791 9.5761 15.8791 10.4309V10.6824C16.1768 10.7494 16.4523 10.7876 16.7071 10.8801C17.6129 11.2087 18.1432 12.0253 18.1479 13.0786C18.1533 14.2096 18.1479 15.3414 18.1479 16.4724C18.1479 18.5589 18.1479 20.6451 18.1479 22.7311C18.1479 23.7006 17.7644 24.4643 16.8653 24.8826C16.5543 25.0245 16.2169 25.0994 15.8751 25.1025C11.3419 25.1168 6.80935 25.1191 2.27751 25.1092C0.954697 25.1092 0.0140464 24.1371 0.00466001 22.7821C-0.00472639 21.4579 0.00466001 20.1345 0.00466001 18.8103C0.00466001 16.9002 0.000637272 14.9887 0.00466001 13.0792C0.0080123 11.9502 0.622821 11.1007 1.63521 10.8158C1.82562 10.7648 2.02676 10.7454 2.27282 10.7005ZM9.07528 12.2425H2.4525C1.75522 12.2425 1.51386 12.4798 1.51386 13.1758C1.51386 16.343 1.51386 19.51 1.51386 22.6768C1.51386 23.3533 1.76394 23.6021 2.43842 23.6021H15.7128C16.3833 23.6021 16.6374 23.3533 16.6374 22.6768C16.6374 19.5033 16.6374 16.3278 16.6374 13.1503C16.6374 12.4872 16.388 12.2425 15.7242 12.2425H9.07528ZM14.3551 10.7199C14.3551 9.61029 14.3853 8.52951 14.3491 7.45008C14.2411 4.18026 11.145 1.80148 7.95494 2.51752C5.46419 3.07668 3.81554 5.13231 3.79073 7.72765C3.78134 8.64081 3.79073 9.55464 3.79073 10.4678C3.79073 10.5489 3.80012 10.6294 3.80548 10.7199H14.3551Z" fill="currentColor"/>
<path d="M8.32155 19.8456C8.32155 19.611 8.30881 19.3763 8.32558 19.1423C8.33831 18.9626 8.26791 18.8862 8.10835 18.8145C7.23675 18.4256 6.76743 17.6036 6.81705 16.6019C6.84302 16.1646 6.99848 15.7449 7.26364 15.3962C7.52879 15.0475 7.89167 14.7855 8.30613 14.6435C9.47608 14.2413 10.7345 14.7951 11.1757 15.9027C11.6403 17.0699 11.1361 18.327 9.98965 18.8379C9.85556 18.8969 9.82606 18.9687 9.8274 19.1001C9.8341 19.5774 9.83343 20.0555 9.8274 20.5328C9.82271 21.0256 9.54111 21.3226 9.08252 21.328C8.62393 21.3334 8.32692 21.0296 8.32088 20.5234C8.31887 20.2982 8.32155 20.0716 8.32155 19.8456ZM9.05436 17.5346C9.51228 17.5426 9.81935 17.2536 9.82807 16.8051C9.83679 16.3566 9.54313 16.0401 9.0966 16.0267C8.65008 16.0133 8.33228 16.3163 8.32289 16.7642C8.31351 17.2181 8.60583 17.5265 9.05436 17.5346Z" fill="currentColor"/>
</g>
<defs>
<clipPath id="clip0_3203_466">
<rect width="18.1506" height="24.235" fill="white" transform="translate(0 0.882446)"/>
</clipPath>
</defs>
</svg>
